<mxfile host="app.diagrams.net" modified="2023-09-25T09:00:00.141Z" agent="Mozilla/5.0 (Windows NT 10.0; Win64; x64) AppleWebKit/537.36 (KHTML, like Gecko) Chrome/112.0.0.0 Safari/537.36" etag="59hPnx2Qc9LIugB1HOpE" version="21.8.2" type="device">
  <diagram id="OSZ2Phee18SWVbru91V1" name="Page-1">
    <mxGraphModel dx="2240" dy="804" grid="1" gridSize="10" guides="1" tooltips="1" connect="1" arrows="1" fold="1" page="1" pageScale="1" pageWidth="827" pageHeight="1169" math="0" shadow="0">
      <root>
        <mxCell id="0" />
        <mxCell id="1" parent="0" />
        <mxCell id="tb23jhTwbYBxHtJw8TEo-1" value="" style="whiteSpace=wrap;html=1;aspect=fixed;comic=0;fillColor=#ffffff;" parent="1" vertex="1">
          <mxGeometry x="-140" y="190" width="880" height="880" as="geometry" />
        </mxCell>
        <mxCell id="tb23jhTwbYBxHtJw8TEo-2" value="Dienstleister" style="shape=umlActor;verticalLabelPosition=bottom;labelBackgroundColor=#ffffff;verticalAlign=top;html=1;outlineConnect=0;comic=0;fillColor=#ffffff;" parent="1" vertex="1">
          <mxGeometry x="-260" y="460" width="40" height="60" as="geometry" />
        </mxCell>
        <mxCell id="tb23jhTwbYBxHtJw8TEo-28" style="edgeStyle=orthogonalEdgeStyle;rounded=0;orthogonalLoop=1;jettySize=auto;html=1;entryX=0.5;entryY=0;entryDx=0;entryDy=0;" parent="1" source="tb23jhTwbYBxHtJw8TEo-11" target="tb23jhTwbYBxHtJw8TEo-14" edge="1">
          <mxGeometry relative="1" as="geometry" />
        </mxCell>
        <mxCell id="tb23jhTwbYBxHtJw8TEo-11" value="(US001D) Kunden aufnehmen&amp;nbsp;" style="ellipse;whiteSpace=wrap;html=1;comic=0;fillColor=#ffffff;" parent="1" vertex="1">
          <mxGeometry x="190" y="200" width="180" height="80" as="geometry" />
        </mxCell>
        <mxCell id="5MaAvfK4-aHmyIQx563G-8" style="edgeStyle=orthogonalEdgeStyle;rounded=0;orthogonalLoop=1;jettySize=auto;html=1;entryX=0.5;entryY=1;entryDx=0;entryDy=0;" edge="1" parent="1" source="tb23jhTwbYBxHtJw8TEo-12" target="tb23jhTwbYBxHtJw8TEo-14">
          <mxGeometry relative="1" as="geometry" />
        </mxCell>
        <mxCell id="tb23jhTwbYBxHtJw8TEo-12" value="(US002D) Kundenstammdaten einsehen und aktualisieren" style="ellipse;whiteSpace=wrap;html=1;comic=0;fillColor=#ffffff;" parent="1" vertex="1">
          <mxGeometry x="190" y="670" width="180" height="80" as="geometry" />
        </mxCell>
        <mxCell id="tb23jhTwbYBxHtJw8TEo-35" style="edgeStyle=orthogonalEdgeStyle;rounded=0;orthogonalLoop=1;jettySize=auto;html=1;entryX=-0.012;entryY=0.063;entryDx=0;entryDy=0;entryPerimeter=0;" parent="1" source="tb23jhTwbYBxHtJw8TEo-13" target="tb23jhTwbYBxHtJw8TEo-14" edge="1">
          <mxGeometry relative="1" as="geometry" />
        </mxCell>
        <mxCell id="tb23jhTwbYBxHtJw8TEo-13" value="(US003D) Kundenstammdaten löschen&amp;nbsp;" style="ellipse;whiteSpace=wrap;html=1;comic=0;fillColor=#ffffff;" parent="1" vertex="1">
          <mxGeometry x="190" y="290" width="180" height="80" as="geometry" />
        </mxCell>
        <mxCell id="tb23jhTwbYBxHtJw8TEo-14" value="Desktop Applikation" style="whiteSpace=wrap;html=1;aspect=fixed;comic=0;fillColor=#ffffff;" parent="1" vertex="1">
          <mxGeometry x="800" y="420" width="80" height="80" as="geometry" />
        </mxCell>
        <mxCell id="tb23jhTwbYBxHtJw8TEo-15" value="(US004D) Nutzerrollen&amp;nbsp;" style="ellipse;whiteSpace=wrap;html=1;comic=0;fillColor=#ffffff;" parent="1" vertex="1">
          <mxGeometry x="190" y="440" width="180" height="80" as="geometry" />
        </mxCell>
        <mxCell id="5MaAvfK4-aHmyIQx563G-5" style="edgeStyle=orthogonalEdgeStyle;rounded=0;orthogonalLoop=1;jettySize=auto;html=1;" edge="1" parent="1" source="tb23jhTwbYBxHtJw8TEo-16">
          <mxGeometry relative="1" as="geometry">
            <mxPoint x="-220" y="480" as="targetPoint" />
          </mxGeometry>
        </mxCell>
        <mxCell id="tb23jhTwbYBxHtJw8TEo-16" value="(US005D) Personalisierte Login-Daten" style="ellipse;whiteSpace=wrap;html=1;comic=0;fillColor=#ffffff;" parent="1" vertex="1">
          <mxGeometry x="190" y="560" width="180" height="80" as="geometry" />
        </mxCell>
        <mxCell id="5MaAvfK4-aHmyIQx563G-6" style="edgeStyle=orthogonalEdgeStyle;rounded=0;orthogonalLoop=1;jettySize=auto;html=1;" edge="1" parent="1" source="tb23jhTwbYBxHtJw8TEo-17">
          <mxGeometry relative="1" as="geometry">
            <mxPoint x="-220" y="480" as="targetPoint" />
          </mxGeometry>
        </mxCell>
        <mxCell id="tb23jhTwbYBxHtJw8TEo-17" value="(US006D) Vorauswahl von gängige technische Daten&amp;nbsp;" style="ellipse;whiteSpace=wrap;html=1;comic=0;fillColor=#ffffff;" parent="1" vertex="1">
          <mxGeometry x="190" y="770" width="180" height="80" as="geometry" />
        </mxCell>
        <mxCell id="tb23jhTwbYBxHtJw8TEo-18" value="(US007D) Bilder zu ausgewählten technischen Daten anzeigen" style="ellipse;whiteSpace=wrap;html=1;comic=0;fillColor=#ffffff;" parent="1" vertex="1">
          <mxGeometry x="190" y="950" width="180" height="80" as="geometry" />
        </mxCell>
        <mxCell id="tb23jhTwbYBxHtJw8TEo-29" value="" style="endArrow=none;html=1;entryX=0;entryY=0.5;entryDx=0;entryDy=0;exitX=1;exitY=0.3333333333333333;exitDx=0;exitDy=0;exitPerimeter=0;" parent="1" source="tb23jhTwbYBxHtJw8TEo-2" target="tb23jhTwbYBxHtJw8TEo-11" edge="1">
          <mxGeometry width="50" height="50" relative="1" as="geometry">
            <mxPoint x="-220" y="470" as="sourcePoint" />
            <mxPoint x="-170" y="380" as="targetPoint" />
          </mxGeometry>
        </mxCell>
        <mxCell id="tb23jhTwbYBxHtJw8TEo-30" value="" style="endArrow=none;html=1;entryX=0;entryY=0.5;entryDx=0;entryDy=0;exitX=1;exitY=0.3333333333333333;exitDx=0;exitDy=0;exitPerimeter=0;" parent="1" source="tb23jhTwbYBxHtJw8TEo-2" target="tb23jhTwbYBxHtJw8TEo-12" edge="1">
          <mxGeometry width="50" height="50" relative="1" as="geometry">
            <mxPoint x="-210.43478260869574" y="470" as="sourcePoint" />
            <mxPoint x="-80" y="270" as="targetPoint" />
          </mxGeometry>
        </mxCell>
        <mxCell id="tb23jhTwbYBxHtJw8TEo-33" value="" style="endArrow=none;html=1;exitX=1;exitY=0.3333333333333333;exitDx=0;exitDy=0;exitPerimeter=0;" parent="1" source="tb23jhTwbYBxHtJw8TEo-2" target="tb23jhTwbYBxHtJw8TEo-13" edge="1">
          <mxGeometry width="50" height="50" relative="1" as="geometry">
            <mxPoint x="-200.43478260869574" y="480" as="sourcePoint" />
            <mxPoint x="-80" y="360" as="targetPoint" />
          </mxGeometry>
        </mxCell>
        <mxCell id="tb23jhTwbYBxHtJw8TEo-34" value="" style="endArrow=none;html=1;entryX=0;entryY=0.5;entryDx=0;entryDy=0;exitX=1;exitY=0.5;exitDx=0;exitDy=0;" parent="1" source="tb23jhTwbYBxHtJw8TEo-15" target="tb23jhTwbYBxHtJw8TEo-14" edge="1">
          <mxGeometry width="50" height="50" relative="1" as="geometry">
            <mxPoint x="631.0652173913043" y="512" as="sourcePoint" />
            <mxPoint x="758.7769472983778" y="487.7567719431663" as="targetPoint" />
          </mxGeometry>
        </mxCell>
        <mxCell id="tb23jhTwbYBxHtJw8TEo-36" value="" style="endArrow=none;html=1;entryX=0;entryY=0.5;entryDx=0;entryDy=0;exitX=1;exitY=0.5;exitDx=0;exitDy=0;" parent="1" source="tb23jhTwbYBxHtJw8TEo-16" target="tb23jhTwbYBxHtJw8TEo-14" edge="1">
          <mxGeometry width="50" height="50" relative="1" as="geometry">
            <mxPoint x="680" y="490" as="sourcePoint" />
            <mxPoint x="797" y="470" as="targetPoint" />
          </mxGeometry>
        </mxCell>
        <mxCell id="tb23jhTwbYBxHtJw8TEo-37" value="" style="endArrow=none;html=1;entryX=0;entryY=0.5;entryDx=0;entryDy=0;exitX=1;exitY=0.5;exitDx=0;exitDy=0;" parent="1" source="tb23jhTwbYBxHtJw8TEo-17" target="tb23jhTwbYBxHtJw8TEo-14" edge="1">
          <mxGeometry width="50" height="50" relative="1" as="geometry">
            <mxPoint x="690" y="500" as="sourcePoint" />
            <mxPoint x="807" y="480" as="targetPoint" />
          </mxGeometry>
        </mxCell>
        <mxCell id="tb23jhTwbYBxHtJw8TEo-38" value="" style="endArrow=none;html=1;entryX=0;entryY=0.5;entryDx=0;entryDy=0;exitX=1;exitY=0.5;exitDx=0;exitDy=0;" parent="1" source="tb23jhTwbYBxHtJw8TEo-18" target="tb23jhTwbYBxHtJw8TEo-14" edge="1">
          <mxGeometry width="50" height="50" relative="1" as="geometry">
            <mxPoint x="636.5524619448106" y="643.4475380551894" as="sourcePoint" />
            <mxPoint x="810" y="470" as="targetPoint" />
          </mxGeometry>
        </mxCell>
        <mxCell id="5MaAvfK4-aHmyIQx563G-12" value="&amp;lt;&amp;lt;include&amp;gt;&amp;gt;" style="html=1;verticalAlign=bottom;labelBackgroundColor=none;endArrow=open;endFill=0;dashed=1;rounded=0;entryX=0.653;entryY=0.033;entryDx=0;entryDy=0;entryPerimeter=0;exitX=0.653;exitY=0.999;exitDx=0;exitDy=0;exitPerimeter=0;" edge="1" parent="1">
          <mxGeometry x="-0.1727" y="32" width="160" relative="1" as="geometry">
            <mxPoint x="279.7" y="369.99999999999994" as="sourcePoint" />
            <mxPoint x="279.7" y="442.71999999999997" as="targetPoint" />
            <mxPoint as="offset" />
          </mxGeometry>
        </mxCell>
        <mxCell id="5MaAvfK4-aHmyIQx563G-14" value="&amp;lt;&amp;lt;include&amp;gt;&amp;gt;" style="html=1;verticalAlign=bottom;labelBackgroundColor=none;endArrow=open;endFill=0;dashed=1;rounded=0;exitX=0.5;exitY=1;exitDx=0;exitDy=0;entryX=0.5;entryY=0;entryDx=0;entryDy=0;" edge="1" parent="1" source="tb23jhTwbYBxHtJw8TEo-17" target="tb23jhTwbYBxHtJw8TEo-18">
          <mxGeometry y="40" width="160" relative="1" as="geometry">
            <mxPoint x="210" y="900" as="sourcePoint" />
            <mxPoint x="370" y="900" as="targetPoint" />
            <mxPoint as="offset" />
          </mxGeometry>
        </mxCell>
      </root>
    </mxGraphModel>
  </diagram>
</mxfile>
